<svg width="100" height="100" viewBox="0 0 100 100" fill="none" xmlns="http://www.w3.org/2000/svg">
<circle cx="50" cy="50" r="50" fill="#008AAB"/>
<path d="M26.7946 62.125H9.55047V58.3457L15.5973 51.8242C16.3591 51.0039 17.0505 50.248 17.6716 49.5566C18.2927 48.8652 18.8259 48.1914 19.2712 47.5352C19.7165 46.8789 20.0622 46.2109 20.3083 45.5312C20.5544 44.8516 20.6774 44.1191 20.6774 43.334C20.6774 42.4668 20.4137 41.793 19.8864 41.3125C19.3708 40.832 18.6735 40.5918 17.7946 40.5918C16.8688 40.5918 15.9782 40.8203 15.1227 41.2773C14.2673 41.7344 13.3708 42.3848 12.4333 43.2285L9.48016 39.7305C10.0075 39.25 10.5583 38.793 11.1325 38.3594C11.7067 37.9141 12.3395 37.5215 13.0309 37.1816C13.7223 36.8418 14.4841 36.5723 15.3161 36.373C16.1481 36.1621 17.0798 36.0566 18.111 36.0566C19.3415 36.0566 20.443 36.2266 21.4157 36.5664C22.4001 36.9062 23.238 37.3926 23.9294 38.0254C24.6208 38.6465 25.1481 39.4023 25.5114 40.293C25.8864 41.1836 26.0739 42.1855 26.0739 43.2988C26.0739 44.3066 25.8981 45.2734 25.5466 46.1992C25.195 47.1133 24.7145 48.0156 24.1052 48.9062C23.4958 49.7852 22.7868 50.6641 21.9782 51.543C21.1813 52.4102 20.3259 53.2949 19.4118 54.1973L16.318 57.3086V57.5547H26.7946V62.125ZM48.2779 49.2754C48.2779 51.3496 48.1138 53.2012 47.7857 54.8301C47.4693 56.459 46.9537 57.8418 46.2388 58.9785C45.5357 60.1152 44.6216 60.9824 43.4966 61.5801C42.3834 62.1777 41.0357 62.4766 39.4537 62.4766C37.9654 62.4766 36.6705 62.1777 35.5689 61.5801C34.4673 60.9824 33.5533 60.1152 32.8267 58.9785C32.1002 57.8418 31.5552 56.459 31.192 54.8301C30.8404 53.2012 30.6646 51.3496 30.6646 49.2754C30.6646 47.2012 30.8228 45.3438 31.1392 43.7031C31.4673 42.0625 31.983 40.6738 32.6861 39.5371C33.3892 38.4004 34.2974 37.5332 35.4107 36.9355C36.524 36.3262 37.8716 36.0215 39.4537 36.0215C40.9302 36.0215 42.2193 36.3203 43.3209 36.918C44.4224 37.5156 45.3423 38.3828 46.0806 39.5195C46.8189 40.6562 47.3697 42.0449 47.733 43.6855C48.0963 45.3262 48.2779 47.1895 48.2779 49.2754ZM36.0787 49.2754C36.0787 52.2051 36.3306 54.4082 36.8345 55.8848C37.3384 57.3613 38.2115 58.0996 39.4537 58.0996C40.6724 58.0996 41.5455 57.3672 42.0728 55.9023C42.6119 54.4375 42.8814 52.2285 42.8814 49.2754C42.8814 46.334 42.6119 44.125 42.0728 42.6484C41.5455 41.1602 40.6724 40.416 39.4537 40.416C38.8326 40.416 38.3052 40.6035 37.8716 40.9785C37.4498 41.3535 37.1041 41.9102 36.8345 42.6484C36.565 43.3867 36.3716 44.3125 36.2545 45.4258C36.1373 46.5273 36.0787 47.8105 36.0787 49.2754ZM61.517 45.707C62.6186 45.707 63.644 45.877 64.5932 46.2168C65.5424 46.5566 66.3686 47.0547 67.0717 47.7109C67.7748 48.3672 68.3256 49.1875 68.7241 50.1719C69.1225 51.1445 69.3217 52.2637 69.3217 53.5293C69.3217 54.9238 69.1049 56.1777 68.6713 57.291C68.2377 58.3926 67.5991 59.3301 66.7553 60.1035C65.9116 60.8652 64.8627 61.4512 63.6088 61.8613C62.3666 62.2715 60.937 62.4766 59.3198 62.4766C58.6752 62.4766 58.0366 62.4473 57.4038 62.3887C56.7709 62.3301 56.1616 62.2422 55.5756 62.125C55.0014 62.0195 54.4506 61.8789 53.9233 61.7031C53.4077 61.5273 52.9389 61.3223 52.517 61.0879V56.3945C52.9272 56.6289 53.4018 56.8516 53.9409 57.0625C54.4799 57.2617 55.0366 57.4375 55.6108 57.5898C56.1967 57.7305 56.7827 57.8477 57.3686 57.9414C57.9545 58.0234 58.5112 58.0645 59.0385 58.0645C60.6088 58.0645 61.8041 57.7422 62.6245 57.0977C63.4448 56.4414 63.8549 55.4043 63.8549 53.9863C63.8549 52.7207 63.4506 51.7598 62.642 51.1035C61.8452 50.4355 60.6088 50.1016 58.933 50.1016C58.6284 50.1016 58.3002 50.1191 57.9487 50.1543C57.6088 50.1895 57.269 50.2363 56.9291 50.2949C56.601 50.3535 56.2846 50.418 55.9799 50.4883C55.6752 50.5469 55.4116 50.6113 55.1889 50.6816L53.0268 49.5215L53.9936 36.4258H67.5639V41.0312H58.7045L58.2827 46.0762C58.6577 45.9941 59.0913 45.9121 59.5834 45.8301C60.0873 45.748 60.7319 45.707 61.517 45.707ZM86.8148 62.125H81.3831V47.2539C81.3831 46.9492 81.3831 46.5859 81.3831 46.1641C81.3948 45.7305 81.4066 45.2852 81.4183 44.8281C81.4417 44.3594 81.4593 43.8906 81.471 43.4219C81.4945 42.9531 81.512 42.5254 81.5238 42.1387C81.4652 42.209 81.3655 42.3145 81.2249 42.4551C81.0843 42.5957 80.9261 42.7539 80.7503 42.9297C80.5745 43.0938 80.3929 43.2637 80.2054 43.4395C80.0179 43.6152 79.8363 43.7734 79.6605 43.9141L76.7073 46.2871L74.0706 43.0176L82.3499 36.4258H86.8148V62.125Z" fill="white"/>
<animateTransform attributeType="XML" attributeName="transform" type="scale" values="1;0.8;0.5;1" additive="sum" begin="0s" dur="1s" repeatCount="indefinite"/>
</svg>
